<svg xmlns="http://www.w3.org/2000/svg" width="24" height="24" viewBox="0 0 24 24">
  <path d="M4 11.5 9.75 7.25H21a1 1 0 0 1 1 1l-1.1 4.25H4.75Z" fill="#bfdbfe"/>
  <path d="M3 10a2 2 0 0 1 2-2h5l2 2h7a2 2 0 0 1 2 2v1H3v-3z" fill="#93c5fd"/>
  <path d="M3.5 12h19a1 1 0 0 1 .97 1.26l-1.5 6A2 2 0 0 1 20.03 21H6a2 2 0 0 1-1.94-1.52l-1.4-6A1 1 0 0 1 3.5 12z" fill="#60a5fa"/>
  <path d="M4 11.5 9.75 7.25H21a1 1 0 0 1 1 1l-1.1 4.25H4.75Z" fill="none" stroke="#2563eb" stroke-width="1.5" stroke-linejoin="round"/>
  <path d="M3.5 12h19a1 1 0 0 1 .97 1.26l-1.5 6A2 2 0 0 1 20.03 21H6a2 2 0 0 1-1.94-1.52l-1.4-6A1 1 0 0 1 3.5 12z" fill="none" stroke="#2563eb" stroke-width="1.5" stroke-linejoin="round"/>
</svg>
