<svg xmlns="http://www.w3.org/2000/svg" width="24" height="24" viewBox="0 0 24 24" fill="none">
  <g transform="translate(12 12) scale(1.1) translate(-12 -12)">
    <path d="M12 2C6.5 2 2 6.5 2 12s4.5 10 10 10c.926 0 1.648-.746 1.648-1.688 0-.437-.18-.835-.437-1.125-.29-.289-.438-.652-.438-1.125a1.64 1.64 0 0 1 1.668-1.668h1.996c3.051 0 5.555-2.503 5.555-5.554C21.965 6.012 17.461 2 12 2z" fill="#F8FAFC" stroke="#0F172A" stroke-width="1.8" stroke-linecap="round" stroke-linejoin="round"/>
    <circle cx="8.5" cy="7.5" r="1.35" fill="#EF4444"/>
    <circle cx="13.5" cy="6.5" r="1.35" fill="#F59E0B"/>
    <circle cx="17.5" cy="10.5" r="1.35" fill="#22C55E"/>
    <circle cx="6.5" cy="12.5" r="1.35" fill="#3B82F6"/>
    <circle cx="11.2" cy="11.6" r="1.15" fill="#A855F7"/>
  </g>
</svg>
